<svg height="158.11043049250728" width="300" style="width: 300px; height: 158.11px; position: absolute; top: 50%; left: 50%; transform: translate(-50%, -50%) scale(1); z-index: 0; cursor: pointer;"><defs id="SvgjsDefs1001"><linearGradient id="SvgjsLinearGradient1011"><stop id="SvgjsStop1012" stop-color="#616161" offset="0"></stop><stop id="SvgjsStop1013" stop-color="#e6e7e8" offset="0.5"></stop><stop id="SvgjsStop1014" stop-color="#616161" offset="1"></stop></linearGradient></defs><g id="SvgjsG1007" featurekey="symbolFeature-0" transform="matrix(0.9865193922389648,0,0,0.9865193922389648,-1.6231176344518587,21.954034444859868)" fill="url(#SvgjsLinearGradient1011)"><path xmlns="http://www.w3.org/2000/svg" d="M48.3,88.1c-8.5,0-16.7-3.7-22.3-10.6c-4.4-5.4-8.3-10-11.6-13.8c-3.7-4.2-5.3-9.7-4.4-15.2c0.9-5.5,4.1-10.3,9-13.1h0  l39-22.7c5.3-3.1,11.7-3.3,17.2-0.8c5.5,2.6,9.4,7.7,10.4,13.7l5,30.4c1.3,7.9-2.6,15.7-9.7,19.4c-5.1,2.7-12,6-20.4,9.9  C56.6,87.2,52.4,88.1,48.3,88.1z M20.9,38.8c-3.8,2.2-6.3,5.9-7,10.2c-0.7,4.3,0.6,8.7,3.5,11.9c3.4,3.8,7.3,8.5,11.7,13.9  c7.2,8.8,19.4,11.6,29.7,6.8c8.3-3.9,15.1-7.2,20.2-9.9c5.6-2.9,8.6-9,7.6-15.2l-5-30.4c-0.8-4.8-3.8-8.7-8.1-10.7  c-4.4-2.1-9.3-1.8-13.5,0.6L20.9,38.8L20.9,38.8z"></path></g><g id="SvgjsG1008" featurekey="nameFeature-0" transform="matrix(3.9018825618845443,0,0,3.9018825618845443,104.85869268983468,-61.09527152157404)" fill="#ffffff"><path d="M-1 40.88 c-0.6 -0.72 -0.04 -1.52 1.04 -2.04 c1.04 -0.52 1.24 -1.32 0.92 -2.04 c-1.04 -2.36 -1.36 -3 -1.12 -3.96 c0.24 -0.84 0.92 -1.4 1.72 -1.44 c0.76 -0.04 1.28 0.32 1.6 0.96 c0.28 0.56 0.2 1.48 -0.52 1.96 c-0.16 0.08 -0.44 0.24 -0.6 0.08 c-0.24 -0.16 -0.12 -0.32 0.08 -0.52 c1.04 -0.8 -0.08 -2.2 -0.96 -1.52 c-0.96 0.72 -0.56 1.88 0.76 4.72 c0.12 0.24 0.4 0.6 0.88 0.36 c0.92 -0.4 2.08 -0.92 3.2 -1.44 c2.04 -0.96 3.88 -2.12 5.76 -3.36 c0.24 -0.16 0.56 -0.6 0.84 -0.16 c0.24 0.36 -0.16 0.52 -0.44 0.72 c-2.64 1.88 -5.4 3.44 -8.44 4.6 c-0.96 0.36 -1.68 1 -1.92 1.92 c-0.28 1 -2.04 2.08 -2.8 1.16 z M0.28 40.44 c0.92 -0.36 1.28 -1.68 0.48 -1.28 c-1.72 0.84 -1.24 1.6 -0.48 1.28 z M30.668 32.4 c0.36 0.24 0.12 0.48 -0.08 0.64 c-2.68 2.36 -4.8 4.88 -8 6.68 c-1.24 0.68 -2.76 1.64 -4.04 0.52 c-1.36 -1.24 -0.44 -2.84 0.12 -4.24 c0.36 -0.92 0.92 -1.8 1.24 -2.72 c0.24 -0.72 0.08 -1.16 -0.88 -0.8 c-2.24 0.88 -3.96 2.44 -5.6 4.08 c-0.4 0.44 -0.76 0.92 -1.16 1.4 c-0.24 0.28 -0.48 0.8 -0.88 0.52 c-0.32 -0.24 -0.16 -0.72 0 -1.12 c0.92 -2.2 1.76 -4.44 2.72 -6.64 c1.76 -4 3.6 -8 6.24 -11.52 c1 -1.32 2.12 -2.56 3.68 -3.24 c1.96 -0.84 3.48 0.12 3.44 2.28 c-0.08 2.24 -1.32 4.04 -2.68 5.64 c-2.24 2.68 -4.84 5 -7.96 6.6 c-2 1 -2.96 2.52 -3.4 4.52 c-0.04 0.16 -0.04 0.32 0.2 0.2 c1.28 -0.96 2.4 -2.08 3.84 -2.84 c0.64 -0.36 1.24 -0.76 2 -0.8 c1.28 -0.08 1.76 0.44 1.36 1.68 c-0.32 0.92 -0.84 1.8 -1.24 2.68 c-0.28 0.64 -0.56 1.24 -0.76 1.84 c-0.2 0.64 -0.36 1.36 0.16 1.88 c0.56 0.56 1.24 0.36 1.88 0.12 c2.52 -0.92 5.32 -3.48 9.16 -7.08 c0.16 -0.16 0.4 -0.44 0.64 -0.28 z M17.028 26.52 c-0.56 1.24 -1.44 2.32 -1.44 3.76 c4.28 -2 7.68 -5.04 10.16 -9.08 c0.44 -0.72 0.72 -1.56 0.96 -2.36 c0.2 -0.72 0.2 -1.48 -0.44 -2.04 c-0.72 -0.56 -1.52 -0.4 -2.24 0 c-0.96 0.6 -1.8 1.36 -2.52 2.24 c-1.8 2.32 -3.28 4.8 -4.48 7.48 z M21.816 56.08 c-0.72 -0.36 -1.04 -1 -0.92 -1.8 c0.16 -1.12 0.56 -2.2 1 -3.2 c1.24 -2.64 2.72 -5.2 4.56 -7.48 c2.12 -2.72 3.6 -5.68 4.52 -8.96 c0.32 -1.04 0.68 -3.16 1.6 -2.96 c0.44 0.12 -0.6 2.12 -0.8 3.2 c-0.2 0.76 -0.56 1.76 -0.4 1.96 c0.4 0.08 1.04 -0.76 1.56 -1.24 c1.28 -1.16 2.4 -2.52 3.88 -3.44 c0.52 -0.32 1.04 -0.64 1.6 -0.84 c1.72 -0.6 2.52 0 2.4 2.12 c0 0.64 -0.32 1.4 -0.72 2.2 c-0.2 0.36 -0.76 0.84 -0.48 1.2 c0.4 0.48 1.04 -0.04 1.48 -0.16 c2.96 -0.84 4.84 -2.08 7.44 -3.68 c0.32 -0.2 1.16 -1.04 1.44 -0.6 c0.2 0.28 -0.48 0.72 -0.84 0.96 c-2.64 1.68 -4.56 3 -7.6 3.88 c-1.88 0.52 -3.76 1.04 -5.32 2.32 c-0.84 0.56 -1.96 1 -2.76 0.36 c-0.32 -0.28 -0.56 -0.72 -0.32 -1.28 c0.44 -1.04 1.36 -1.04 2.32 -1.08 c2.72 -0.12 4.64 -2.04 4.64 -4.6 c0 -1 -0.36 -1.36 -1.36 -0.92 c-0.28 0.12 -0.64 0.2 -0.88 0.4 c-3.6 2.72 -7.24 5.44 -8.68 10.04 c-1.04 3.28 -2.36 6.44 -3.68 9.64 c-0.52 1.2 -1.12 2.44 -2.12 3.36 c-0.4 0.4 -0.88 0.92 -1.56 0.6 z M34.416 39.52 c0.72 -0.12 1.4 -0.44 1.72 -1.08 c0.12 -0.2 -0.48 -0.16 -0.72 -0.2 c-0.72 -0.04 -1.36 0.04 -1.52 0.84 c-0.04 0.28 0.24 0.48 0.52 0.44 z M22.016 55.28 c0.48 0.16 0.76 -0.2 1 -0.52 c0.36 -0.44 0.72 -0.96 1 -1.48 c1.48 -3.04 2.64 -6.2 3.76 -9.4 c0.08 -0.24 0.24 -0.48 0.04 -0.72 c-0.2 0.16 -0.48 0.28 -0.64 0.48 c-1.84 2.68 -3.68 5.36 -4.92 8.4 c-0.24 0.68 -0.52 1.36 -0.72 1.84 c0 0.68 -0.08 1.2 0.48 1.4 z"></path></g></svg>